<?xml version="1.0" encoding="UTF-8" standalone="no"?>
<svg
   xmlns:dc="http://purl.org/dc/elements/1.1/"
   xmlns:cc="http://creativecommons.org/ns#"
   xmlns:rdf="http://www.w3.org/1999/02/22-rdf-syntax-ns#"
   xmlns:svg="http://www.w3.org/2000/svg"
   xmlns="http://www.w3.org/2000/svg"
   xmlns:sodipodi="http://sodipodi.sourceforge.net/DTD/sodipodi-0.dtd"
   xmlns:inkscape="http://www.inkscape.org/namespaces/inkscape"
   width="210mm"
   height="297mm"
   viewBox="0 0 210 297"
   version="1.1"
   id="svg8"
   inkscape:version="1.0.1 (3bc2e813f5, 2020-09-07)"
   sodipodi:docname="usericon.svg">
  <defs
     id="defs2" />
  <sodipodi:namedview
     id="base"
     pagecolor="#ffffff"
     bordercolor="#666666"
     borderopacity="1.0"
     inkscape:pageopacity="0.0"
     inkscape:pageshadow="2"
     inkscape:zoom="0.35"
     inkscape:cx="400"
     inkscape:cy="560"
     inkscape:document-units="mm"
     inkscape:current-layer="layer1"
     inkscape:document-rotation="0"
     showgrid="false"
     inkscape:pagecheckerboard="true"
     showborder="false"
     inkscape:window-width="1661"
     inkscape:window-height="1024"
     inkscape:window-x="76"
     inkscape:window-y="0"
     inkscape:window-maximized="0" />
  <metadata
     id="metadata5">
    <rdf:RDF>
      <cc:Work
         rdf:about="">
        <dc:format>image/svg+xml</dc:format>
        <dc:type
           rdf:resource="http://purl.org/dc/dcmitype/StillImage" />
        <dc:title></dc:title>
      </cc:Work>
    </rdf:RDF>
  </metadata>
  <g
     inkscape:label="Layer 1"
     inkscape:groupmode="layer"
     id="layer1">
    <g
       id="g1039"
       transform="matrix(1,0,0,0.9999898,-63.651941,33.484237)"
       inkscape:export-xdpi="8.9454594"
       inkscape:export-ydpi="8.9454594">
      <path
         id="path961"
         style="fill:#ffffff;fill-opacity:1;fill-rule:evenodd;stroke:none;stroke-width:3.10499;stroke-linecap:round;stroke-linejoin:round;paint-order:markers fill stroke"
         d="m 387.17684,26.992872 a 58.20833,58.20833 0 0 0 -58.1856,58.208332 58.20833,58.20833 0 0 0 12.92169,36.569346 58.20833,58.20833 0 0 1 0.0372,-0.0465 58.20833,58.20833 0 0 1 0.20825,-0.2558 58.20833,58.20833 0 0 1 0.20982,-0.25476 58.20833,58.20833 0 0 1 0.21084,-0.25374 58.20833,58.20833 0 0 1 0.21291,-0.25218 58.20833,58.20833 0 0 1 0.21395,-0.25114 58.20833,58.20833 0 0 1 0.21547,-0.25012 58.20833,58.20833 0 0 1 0.21704,-0.24856 58.20833,58.20833 0 0 1 0.21807,-0.24753 58.20833,58.20833 0 0 1 0.21963,-0.24598 58.20833,58.20833 0 0 1 0.22119,-0.24495 58.20833,58.20833 0 0 1 0.2227,-0.24391 58.20833,58.20833 0 0 1 0.22376,-0.24236 58.20833,58.20833 0 0 1 0.22532,-0.24133 58.20833,58.20833 0 0 1 0.22635,-0.23978 58.20833,58.20833 0 0 1 0.22789,-0.23875 58.20833,58.20833 0 0 1 0.22944,-0.23719 58.20833,58.20833 0 0 1 0.23048,-0.23616 58.20833,58.20833 0 0 1 0.23201,-0.23461 58.20833,58.20833 0 0 1 0.23361,-0.23358 58.20833,58.20833 0 0 1 0.2346,-0.23203 58.20833,58.20833 0 0 1 0.23564,-0.23047 58.20833,58.20833 0 0 1 0.2372,-0.22945 58.20833,58.20833 0 0 1 0.23873,-0.22841 58.20833,58.20833 0 0 1 0.23979,-0.22634 58.20833,58.20833 0 0 1 0.24133,-0.22531 58.20833,58.20833 0 0 1 0.24236,-0.22427 58.20833,58.20833 0 0 1 0.24339,-0.22221 58.20833,58.20833 0 0 1 0.24495,-0.22118 58.20833,58.20833 0 0 1 0.24598,-0.22014 58.20833,58.20833 0 0 1 0.24752,-0.21808 58.20833,58.20833 0 0 1 0.24858,-0.21704 58.20833,58.20833 0 0 1 0.25011,-0.21549 58.20833,58.20833 0 0 1 0.25114,-0.21445 58.20833,58.20833 0 0 1 0.25217,-0.21291 58.20833,58.20833 0 0 1 0.25324,-0.21084 58.20833,58.20833 0 0 1 0.25476,-0.21032 58.20833,58.20833 0 0 1 0.2558,-0.20826 58.20833,58.20833 0 0 1 0.25734,-0.2067 58.20833,58.20833 0 0 1 0.25786,-0.20568 58.20833,58.20833 0 0 1 0.25942,-0.20412 58.20833,58.20833 0 0 1 0.26046,-0.20257 58.20833,58.20833 0 0 1 0.26199,-0.20102 58.20833,58.20833 0 0 1 0.26252,-0.19947 58.20833,58.20833 0 0 1 0.26405,-0.19792 58.20833,58.20833 0 0 1 0.26512,-0.19689 58.20833,58.20833 0 0 1 0.26614,-0.19482 58.20833,58.20833 0 0 1 0.26715,-0.19379 58.20833,58.20833 0 0 1 0.26874,-0.19224 58.20833,58.20833 0 0 1 0.26921,-0.19016 58.20833,58.20833 0 0 1 0.27027,-0.18914 58.20833,58.20833 0 0 1 0.27184,-0.18759 58.20833,58.20833 0 0 1 0.27283,-0.18603 58.20833,58.20833 0 0 1 0.27337,-0.18449 58.20833,58.20833 0 0 1 0.27493,-0.18241 58.20833,58.20833 0 0 1 0.27543,-0.18139 58.20833,58.20833 0 0 1 0.27699,-0.17983 58.20833,58.20833 0 0 1 0.278,-0.17777 58.20833,58.20833 0 0 1 0.27856,-0.17673 58.20833,58.20833 0 0 1 0.28008,-0.17519 58.20833,58.20833 0 0 1 0.28059,-0.17311 58.20833,58.20833 0 0 1 0.28165,-0.17208 58.20833,58.20833 0 0 1 0.28266,-0.17002 58.20833,58.20833 0 0 1 0.28371,-0.16846 58.20833,58.20833 0 0 1 0.28474,-0.16692 58.20833,58.20833 0 0 1 0.28575,-0.16536 58.20833,58.20833 0 0 1 0.28631,-0.16382 58.20833,58.20833 0 0 1 0.28731,-0.16226 58.20833,58.20833 0 0 1 0.28837,-0.1602 58.20833,58.20833 0 0 1 0.28938,-0.15916 58.20833,58.20833 0 0 1 0.29043,-0.1571 58.20833,58.20833 0 0 1 0.29093,-0.15554 58.20833,58.20833 0 0 1 0.29197,-0.154 58.20833,58.20833 0 0 1 0.2925,-0.15193 58.20833,58.20833 0 0 1 0.29403,-0.15038 58.20833,58.20833 0 0 1 0.29456,-0.14934 58.20833,58.20833 0 0 1 0.29506,-0.14676 58.20833,58.20833 0 0 1 0.2961,-0.14573 58.20833,58.20833 0 0 1 0.29715,-0.14418 58.20833,58.20833 0 0 1 0.29766,-0.14211 58.20833,58.20833 0 0 1 0.29869,-0.14056 58.20833,58.20833 0 0 1 0.29921,-0.13849 58.20833,58.20833 0 0 1 0.30023,-0.13694 58.20833,58.20833 0 0 1 0.30128,-0.1354 58.20833,58.20833 0 0 1 0.30178,-0.13384 58.20833,58.20833 0 0 1 0.30231,-0.13177 58.20833,58.20833 0 0 1 0.30335,-0.13074 58.20833,58.20833 0 0 1 0.30385,-0.12816 58.20833,58.20833 0 0 1 0.30437,-0.12712 58.20833,58.20833 0 0 1 0.30541,-0.12506 58.20833,58.20833 0 0 1 0.30644,-0.12299 58.20833,58.20833 0 0 1 0.30644,-0.12196 58.20833,58.20833 0 0 1 0.30748,-0.11989 58.20833,58.20833 0 0 1 0.308,-0.11782 58.20833,58.20833 0 0 1 0.30903,-0.11627 58.20833,58.20833 0 0 1 0.30954,-0.11472 58.20833,58.20833 0 0 1 0.31006,-0.11318 58.20833,58.20833 0 0 1 0.31057,-0.1111 58.20833,58.20833 0 0 1 0.3116,-0.10904 58.20833,58.20833 0 0 1 0.3116,-0.10748 58.20833,58.20833 0 0 1 0.31266,-0.10594 58.20833,58.20833 0 0 1 0.31316,-0.10387 58.20833,58.20833 0 0 1 0.31419,-0.10232 58.20833,58.20833 0 0 1 0.31419,-0.10077 58.20833,58.20833 0 0 1 0.3147,-0.0987 58.20833,58.20833 0 0 1 0.31575,-0.0966 58.20833,58.20833 0 0 1 0.31576,-0.0951 58.20833,58.20833 0 0 1 0.31676,-0.0935 58.20833,58.20833 0 0 1 0.31678,-0.0915 58.20833,58.20833 0 0 1 0.31782,-0.0899 58.20833,58.20833 0 0 1 0.31779,-0.0879 58.20833,58.20833 0 0 1 0.31885,-0.0858 58.20833,58.20833 0 0 1 0.31885,-0.0847 58.20833,58.20833 0 0 1 0.31935,-0.0822 58.20833,58.20833 0 0 1 0.32041,-0.0806 58.20833,58.20833 0 0 1 0.32038,-0.0791 58.20833,58.20833 0 0 1 0.32092,-0.077 58.20833,58.20833 0 0 1 0.32091,-0.0754 58.20833,58.20833 0 0 1 0.32195,-0.0734 58.20833,58.20833 0 0 1 0.32194,-0.0713 58.20833,58.20833 0 0 1 0.32298,-0.0698 58.20833,58.20833 0 0 1 0.32245,-0.0682 58.20833,58.20833 0 0 1 0.3235,-0.0662 58.20833,58.20833 0 0 1 0.32348,-0.0641 58.20833,58.20833 0 0 1 0.32454,-0.0625 58.20833,58.20833 0 0 1 0.32401,-0.0605 58.20833,58.20833 0 0 1 0.32504,-0.0589 58.20833,58.20833 0 0 1 0.32504,-0.0568 58.20833,58.20833 0 0 1 0.32504,-0.0548 58.20833,58.20833 0 0 1 0.3261,-0.0532 58.20833,58.20833 0 0 1 0.32554,-0.0517 58.20833,58.20833 0 0 1 0.3266,-0.0496 58.20833,58.20833 0 0 1 0.32661,-0.0475 58.20833,58.20833 0 0 1 0.3266,-0.0455 58.20833,58.20833 0 0 1 0.3271,-0.0444 58.20833,58.20833 0 0 1 0.32711,-0.0419 58.20833,58.20833 0 0 1 0.32763,-0.0403 58.20833,58.20833 0 0 1 0.32763,-0.0382 58.20833,58.20833 0 0 1 0.32814,-0.0367 58.20833,58.20833 0 0 1 0.32816,-0.0346 58.20833,58.20833 0 0 1 0.32864,-0.0331 58.20833,58.20833 0 0 1 0.32816,-0.0305 58.20833,58.20833 0 0 1 0.32867,-0.0295 58.20833,58.20833 0 0 1 0.32917,-0.0269 58.20833,58.20833 0 0 1 0.32917,-0.0258 58.20833,58.20833 0 0 1 0.32866,-0.0233 58.20833,58.20833 0 0 1 0.3297,-0.0217 58.20833,58.20833 0 0 1 0.32919,-0.0196 58.20833,58.20833 0 0 1 0.3297,-0.0181 58.20833,58.20833 0 0 1 0.3297,-0.016 58.20833,58.20833 0 0 1 0.32967,-0.0139 58.20833,58.20833 0 0 1 0.3297,-0.0124 58.20833,58.20833 0 0 1 0.32969,-0.0104 58.20833,58.20833 0 0 1 0.3297,-0.009 58.20833,58.20833 0 0 1 0.33023,-0.007 58.20833,58.20833 0 0 1 0.32969,-0.005 58.20833,58.20833 0 0 1 0.3302,-0.003 58.20833,58.20833 0 0 1 0.33023,-0.001 58.20833,58.20833 0 0 1 0.0227,0 58.20833,58.20833 0 0 1 0.3302,0.001 58.20833,58.20833 0 0 1 0.3297,0.003 58.20833,58.20833 0 0 1 0.33023,0.005 58.20833,58.20833 0 0 1 0.3297,0.006 58.20833,58.20833 0 0 1 0.3302,0.009 58.20833,58.20833 0 0 1 0.32969,0.0103 58.20833,58.20833 0 0 1 0.3297,0.0119 58.20833,58.20833 0 0 1 0.3297,0.0139 58.20833,58.20833 0 0 1 0.32969,0.016 58.20833,58.20833 0 0 1 0.32917,0.0176 58.20833,58.20833 0 0 1 0.3297,0.0196 58.20833,58.20833 0 0 1 0.32919,0.0217 58.20833,58.20833 0 0 1 0.32917,0.0232 58.20833,58.20833 0 0 1 0.3292,0.0253 58.20833,58.20833 0 0 1 0.32864,0.0269 58.20833,58.20833 0 0 1 0.32866,0.0294 58.20833,58.20833 0 0 1 0.32867,0.0305 58.20833,58.20833 0 0 1 0.32866,0.0326 58.20833,58.20833 0 0 1 0.32814,0.0346 58.20833,58.20833 0 0 1 0.32763,0.0367 58.20833,58.20833 0 0 1 0.32816,0.0382 58.20833,58.20833 0 0 1 0.32761,0.0398 58.20833,58.20833 0 0 1 0.32713,0.0424 58.20833,58.20833 0 0 1 0.32711,0.0434 58.20833,58.20833 0 0 1 0.3266,0.046 58.20833,58.20833 0 0 1 0.32657,0.0475 58.20833,58.20833 0 0 1 0.32661,0.0491 58.20833,58.20833 0 0 1 0.32607,0.0517 58.20833,58.20833 0 0 1 0.32557,0.0527 58.20833,58.20833 0 0 1 0.32557,0.0553 58.20833,58.20833 0 0 1 0.32504,0.0568 58.20833,58.20833 0 0 1 0.32454,0.0584 58.20833,58.20833 0 0 1 0.32451,0.0605 58.20833,58.20833 0 0 1 0.32401,0.0625 58.20833,58.20833 0 0 1 0.3235,0.0641 58.20833,58.20833 0 0 1 0.32348,0.0656 58.20833,58.20833 0 0 1 0.32298,0.0682 58.20833,58.20833 0 0 1 0.32247,0.0693 58.20833,58.20833 0 0 1 0.32245,0.0718 58.20833,58.20833 0 0 1 0.32144,0.0729 58.20833,58.20833 0 0 1 0.32142,0.0754 58.20833,58.20833 0 0 1 0.32091,0.077 58.20833,58.20833 0 0 1 0.32041,0.0785 58.20833,58.20833 0 0 1 0.32039,0.0806 58.20833,58.20833 0 0 1 0.31935,0.0822 58.20833,58.20833 0 0 1 0.31885,0.0842 58.20833,58.20833 0 0 1 0.31885,0.0863 58.20833,58.20833 0 0 1 0.31832,0.0873 58.20833,58.20833 0 0 1 0.31729,0.0899 58.20833,58.20833 0 0 1 0.31728,0.0915 58.20833,58.20833 0 0 1 0.31629,0.093 58.20833,58.20833 0 0 1 0.31625,0.0951 58.20833,58.20833 0 0 1 0.31523,0.0966 58.20833,58.20833 0 0 1 0.31522,0.0987 58.20833,58.20833 0 0 1 0.3142,0.10025 58.20833,58.20833 0 0 1 0.31366,0.10232 58.20833,58.20833 0 0 1 0.31369,0.10387 58.20833,58.20833 0 0 1 0.31213,0.10542 58.20833,58.20833 0 0 1 0.31213,0.10748 58.20833,58.20833 0 0 1 0.3116,0.10956 58.20833,58.20833 0 0 1 0.31056,0.11058 58.20833,58.20833 0 0 1 0.31007,0.11266 58.20833,58.20833 0 0 1 0.30954,0.11472 58.20833,58.20833 0 0 1 0.30903,0.11627 58.20833,58.20833 0 0 1 0.30797,0.11783 58.20833,58.20833 0 0 1 0.3075,0.11989 58.20833,58.20833 0 0 1 0.30695,0.12144 58.20833,58.20833 0 0 1 0.30644,0.1235 58.20833,58.20833 0 0 1 0.3054,0.12454 58.20833,58.20833 0 0 1 0.30438,0.12713 58.20833,58.20833 0 0 1 0.30438,0.12815 58.20833,58.20833 0 0 1 0.30281,0.13023 58.20833,58.20833 0 0 1 0.30285,0.13177 58.20833,58.20833 0 0 1 0.30178,0.13384 58.20833,58.20833 0 0 1 0.30075,0.13488 58.20833,58.20833 0 0 1 0.30025,0.13694 58.20833,58.20833 0 0 1 0.29972,0.13901 58.20833,58.20833 0 0 1 0.29869,0.14005 58.20833,58.20833 0 0 1 0.29765,0.14211 58.20833,58.20833 0 0 1 0.29713,0.14366 58.20833,58.20833 0 0 1 0.29612,0.14572 58.20833,58.20833 0 0 1 0.2956,0.14728 58.20833,58.20833 0 0 1 0.29453,0.14831 58.20833,58.20833 0 0 1 0.29353,0.1509 58.20833,58.20833 0 0 1 0.293,0.15193 58.20833,58.20833 0 0 1 0.29199,0.15348 58.20833,58.20833 0 0 1 0.29094,0.15554 58.20833,58.20833 0 0 1 0.29041,0.1571 58.20833,58.20833 0 0 1 0.2894,0.15865 58.20833,58.20833 0 0 1 0.28834,0.16071 58.20833,58.20833 0 0 1 0.28731,0.16175 58.20833,58.20833 0 0 1 0.28681,0.16381 58.20833,58.20833 0 0 1 0.28527,0.16485 58.20833,58.20833 0 0 1 0.28472,0.16691 58.20833,58.20833 0 0 1 0.28424,0.16847 58.20833,58.20833 0 0 1 0.28266,0.17001 58.20833,58.20833 0 0 1 0.28165,0.17209 58.20833,58.20833 0 0 1 0.28112,0.17311 58.20833,58.20833 0 0 1 0.27955,0.17467 58.20833,58.20833 0 0 1 0.27906,0.17673 58.20833,58.20833 0 0 1 0.27802,0.17777 58.20833,58.20833 0 0 1 0.27647,0.17983 58.20833,58.20833 0 0 1 0.27596,0.18087 58.20833,58.20833 0 0 1 0.2749,0.18294 58.20833,58.20833 0 0 1 0.2739,0.18396 58.20833,58.20833 0 0 1 0.27233,0.18604 58.20833,58.20833 0 0 1 0.27181,0.18758 58.20833,58.20833 0 0 1 0.2708,0.18862 58.20833,58.20833 0 0 1 0.26921,0.19069 58.20833,58.20833 0 0 1 0.26874,0.19172 58.20833,58.20833 0 0 1 0.26715,0.19327 58.20833,58.20833 0 0 1 0.26614,0.19533 58.20833,58.20833 0 0 1 0.26509,0.19638 58.20833,58.20833 0 0 1 0.26408,0.19792 58.20833,58.20833 0 0 1 0.26302,0.19947 58.20833,58.20833 0 0 1 0.26149,0.20102 58.20833,58.20833 0 0 1 0.26096,0.20257 58.20833,58.20833 0 0 1 0.25942,0.20361 58.20833,58.20833 0 0 1 0.2584,0.20567 58.20833,58.20833 0 0 1 0.25683,0.2067 58.20833,58.20833 0 0 1 0.2558,0.20826 58.20833,58.20833 0 0 1 0.25476,0.20981 58.20833,58.20833 0 0 1 0.25371,0.21135 58.20833,58.20833 0 0 1 0.2522,0.21239 58.20833,58.20833 0 0 1 0.25115,0.21446 58.20833,58.20833 0 0 1 0.25011,0.21549 58.20833,58.20833 0 0 1 0.24857,0.21652 58.20833,58.20833 0 0 1 0.24752,0.2186 58.20833,58.20833 0 0 1 0.24649,0.21962 58.20833,58.20833 0 0 1 0.24495,0.22118 58.20833,58.20833 0 0 1 0.24392,0.2222 58.20833,58.20833 0 0 1 0.24236,0.22376 58.20833,58.20833 0 0 1 0.24082,0.22531 58.20833,58.20833 0 0 1 0.24029,0.22686 58.20833,58.20833 0 0 1 0.23823,0.2279 58.20833,58.20833 0 0 1 0.23771,0.22944 58.20833,58.20833 0 0 1 0.23563,0.23048 58.20833,58.20833 0 0 1 0.23514,0.23202 58.20833,58.20833 0 0 1 0.23307,0.23306 58.20833,58.20833 0 0 1 0.23201,0.23461 58.20833,58.20833 0 0 1 0.23101,0.23617 58.20833,58.20833 0 0 1 0.22942,0.23719 58.20833,58.20833 0 0 1 0.22791,0.23875 58.20833,58.20833 0 0 1 0.22686,0.23978 58.20833,58.20833 0 0 1 0.22532,0.24081 58.20833,58.20833 0 0 1 0.22375,0.24236 58.20833,58.20833 0 0 1 0.22273,0.24391 58.20833,58.20833 0 0 1 0.22117,0.24495 58.20833,58.20833 0 0 1 0.21963,0.24598 58.20833,58.20833 0 0 1 0.21857,0.24753 58.20833,58.20833 0 0 1 0.21706,0.24856 58.20833,58.20833 0 0 1 0.21548,0.2496 58.20833,58.20833 0 0 1 0.21394,0.25115 58.20833,58.20833 0 0 1 0.21291,0.25218 58.20833,58.20833 0 0 1 0.21135,0.25373 58.20833,58.20833 0 0 1 0.20982,0.25476 58.20833,58.20833 0 0 1 0.20825,0.2558 58.20833,58.20833 0 0 1 0.0517,0.0641 58.20833,58.20833 0 0 0 12.92167,-36.569296 58.20833,58.20833 0 0 0 -58.20833,-58.208332 58.20833,58.20833 0 0 0 -0.0228,0 z" />
      <g
         id="g1033">
        <path
           id="path953"
           style="fill:#3461ff;fill-opacity:1;fill-rule:evenodd;stroke:none;stroke-width:3.10499;stroke-linecap:round;stroke-linejoin:round;paint-order:markers fill stroke"
           d="m 432.48621,121.77055 a 58.20833,58.20833 0 0 0 -0.0517,-0.0641 58.20833,58.20833 0 0 0 -0.20825,-0.2558 58.20833,58.20833 0 0 0 -0.20982,-0.25476 58.20833,58.20833 0 0 0 -0.21134,-0.25374 58.20833,58.20833 0 0 0 -0.21291,-0.25218 58.20833,58.20833 0 0 0 -0.21395,-0.25114 58.20833,58.20833 0 0 0 -0.21547,-0.2496 58.20833,58.20833 0 0 0 -0.21707,-0.24856 58.20833,58.20833 0 0 0 -0.21857,-0.24753 58.20833,58.20833 0 0 0 -0.21963,-0.24599 58.20833,58.20833 0 0 0 -0.22117,-0.24494 58.20833,58.20833 0 0 0 -0.22272,-0.24391 58.20833,58.20833 0 0 0 -0.22376,-0.24237 58.20833,58.20833 0 0 0 -0.22532,-0.24081 58.20833,58.20833 0 0 0 -0.22685,-0.23978 58.20833,58.20833 0 0 0 -0.22792,-0.23874 58.20833,58.20833 0 0 0 -0.22942,-0.2372 58.20833,58.20833 0 0 0 -0.231,-0.23616 58.20833,58.20833 0 0 0 -0.23202,-0.23461 58.20833,58.20833 0 0 0 -0.23307,-0.23306 58.20833,58.20833 0 0 0 -0.23513,-0.23203 58.20833,58.20833 0 0 0 -0.23564,-0.23047 58.20833,58.20833 0 0 0 -0.2377,-0.22945 58.20833,58.20833 0 0 0 -0.23823,-0.22789 58.20833,58.20833 0 0 0 -0.2403,-0.22686 58.20833,58.20833 0 0 0 -0.24082,-0.22531 58.20833,58.20833 0 0 0 -0.24236,-0.22376 58.20833,58.20833 0 0 0 -0.24392,-0.22221 58.20833,58.20833 0 0 0 -0.24495,-0.22117 58.20833,58.20833 0 0 0 -0.24649,-0.21963 58.20833,58.20833 0 0 0 -0.24751,-0.21859 58.20833,58.20833 0 0 0 -0.24858,-0.21652 58.20833,58.20833 0 0 0 -0.25011,-0.21549 58.20833,58.20833 0 0 0 -0.25114,-0.21446 58.20833,58.20833 0 0 0 -0.2522,-0.21239 58.20833,58.20833 0 0 0 -0.25371,-0.21136 58.20833,58.20833 0 0 0 -0.25477,-0.2098 58.20833,58.20833 0 0 0 -0.2558,-0.20826 58.20833,58.20833 0 0 0 -0.25683,-0.2067 58.20833,58.20833 0 0 0 -0.25839,-0.20568 58.20833,58.20833 0 0 0 -0.25943,-0.2036 58.20833,58.20833 0 0 0 -0.26095,-0.20257 58.20833,58.20833 0 0 0 -0.26149,-0.20103 58.20833,58.20833 0 0 0 -0.26302,-0.19947 58.20833,58.20833 0 0 0 -0.26409,-0.19792 58.20833,58.20833 0 0 0 -0.26508,-0.19637 58.20833,58.20833 0 0 0 -0.26615,-0.19533 58.20833,58.20833 0 0 0 -0.26715,-0.19327 58.20833,58.20833 0 0 0 -0.26873,-0.19172 58.20833,58.20833 0 0 0 -0.26922,-0.19069 58.20833,58.20833 0 0 0 -0.2708,-0.18862 58.20833,58.20833 0 0 0 -0.2718,-0.18758 58.20833,58.20833 0 0 0 -0.27234,-0.18604 58.20833,58.20833 0 0 0 -0.2739,-0.18397 58.20833,58.20833 0 0 0 -0.2749,-0.18293 58.20833,58.20833 0 0 0 -0.27596,-0.18087 58.20833,58.20833 0 0 0 -0.27646,-0.17983 58.20833,58.20833 0 0 0 -0.27803,-0.17777 58.20833,58.20833 0 0 0 -0.27905,-0.17673 58.20833,58.20833 0 0 0 -0.27956,-0.17467 58.20833,58.20833 0 0 0 -0.28112,-0.17312 58.20833,58.20833 0 0 0 -0.28165,-0.17208 58.20833,58.20833 0 0 0 -0.28265,-0.17001 58.20833,58.20833 0 0 0 -0.28425,-0.16847 58.20833,58.20833 0 0 0 -0.28471,-0.16691 58.20833,58.20833 0 0 0 -0.28528,-0.16485 58.20833,58.20833 0 0 0 -0.28681,-0.16382 58.20833,58.20833 0 0 0 -0.28731,-0.16174 58.20833,58.20833 0 0 0 -0.28834,-0.16072 58.20833,58.20833 0 0 0 -0.2894,-0.15864 58.20833,58.20833 0 0 0 -0.29041,-0.1571 58.20833,58.20833 0 0 0 -0.29093,-0.15555 58.20833,58.20833 0 0 0 -0.292,-0.15348 58.20833,58.20833 0 0 0 -0.293,-0.15192 58.20833,58.20833 0 0 0 -0.29353,-0.1509 58.20833,58.20833 0 0 0 -0.29453,-0.14831 58.20833,58.20833 0 0 0 -0.29559,-0.14728 58.20833,58.20833 0 0 0 -0.29612,-0.14573 58.20833,58.20833 0 0 0 -0.29713,-0.14366 58.20833,58.20833 0 0 0 -0.29766,-0.14211 58.20833,58.20833 0 0 0 -0.29869,-0.14004 58.20833,58.20833 0 0 0 -0.29972,-0.13901 58.20833,58.20833 0 0 0 -0.30025,-0.13694 58.20833,58.20833 0 0 0 -0.30075,-0.13488 58.20833,58.20833 0 0 0 -0.30178,-0.13384 58.20833,58.20833 0 0 0 -0.30284,-0.13177 58.20833,58.20833 0 0 0 -0.30282,-0.13023 58.20833,58.20833 0 0 0 -0.30438,-0.12816 58.20833,58.20833 0 0 0 -0.30437,-0.12712 58.20833,58.20833 0 0 0 -0.30541,-0.12454 58.20833,58.20833 0 0 0 -0.30644,-0.12351 58.20833,58.20833 0 0 0 -0.30694,-0.12144 58.20833,58.20833 0 0 0 -0.3075,-0.11988 58.20833,58.20833 0 0 0 -0.30798,-0.11783 58.20833,58.20833 0 0 0 -0.30903,-0.11627 58.20833,58.20833 0 0 0 -0.30954,-0.11472 58.20833,58.20833 0 0 0 -0.31006,-0.11266 58.20833,58.20833 0 0 0 -0.31057,-0.11058 58.20833,58.20833 0 0 0 -0.3116,-0.10956 58.20833,58.20833 0 0 0 -0.31213,-0.10749 58.20833,58.20833 0 0 0 -0.31213,-0.10541 58.20833,58.20833 0 0 0 -0.31369,-0.10387 58.20833,58.20833 0 0 0 -0.31366,-0.10232 58.20833,58.20833 0 0 0 -0.31419,-0.10026 58.20833,58.20833 0 0 0 -0.31523,-0.0987 58.20833,58.20833 0 0 0 -0.31522,-0.0966 58.20833,58.20833 0 0 0 -0.31626,-0.0951 58.20833,58.20833 0 0 0 -0.31628,-0.093 58.20833,58.20833 0 0 0 -0.31729,-0.0915 58.20833,58.20833 0 0 0 -0.31729,-0.0899 58.20833,58.20833 0 0 0 -0.31832,-0.0873 58.20833,58.20833 0 0 0 -0.31885,-0.0863 58.20833,58.20833 0 0 0 -0.31885,-0.0842 58.20833,58.20833 0 0 0 -0.31935,-0.0822 58.20833,58.20833 0 0 0 -0.32038,-0.0806 58.20833,58.20833 0 0 0 -0.32041,-0.0785 58.20833,58.20833 0 0 0 -0.32092,-0.077 58.20833,58.20833 0 0 0 -0.32141,-0.0754 58.20833,58.20833 0 0 0 -0.32145,-0.0729 58.20833,58.20833 0 0 0 -0.32244,-0.0718 58.20833,58.20833 0 0 0 -0.32248,-0.0692 58.20833,58.20833 0 0 0 -0.32297,-0.0682 58.20833,58.20833 0 0 0 -0.32348,-0.0656 58.20833,58.20833 0 0 0 -0.32351,-0.0641 58.20833,58.20833 0 0 0 -0.32401,-0.0625 58.20833,58.20833 0 0 0 -0.32451,-0.0605 58.20833,58.20833 0 0 0 -0.32454,-0.0584 58.20833,58.20833 0 0 0 -0.32504,-0.0568 58.20833,58.20833 0 0 0 -0.32557,-0.0553 58.20833,58.20833 0 0 0 -0.32557,-0.0527 58.20833,58.20833 0 0 0 -0.32607,-0.0517 58.20833,58.20833 0 0 0 -0.3266,-0.0491 58.20833,58.20833 0 0 0 -0.32658,-0.0475 58.20833,58.20833 0 0 0 -0.3266,-0.046 58.20833,58.20833 0 0 0 -0.3271,-0.0434 58.20833,58.20833 0 0 0 -0.32713,-0.0424 58.20833,58.20833 0 0 0 -0.32761,-0.0398 58.20833,58.20833 0 0 0 -0.32816,-0.0382 58.20833,58.20833 0 0 0 -0.32764,-0.0367 58.20833,58.20833 0 0 0 -0.32813,-0.0346 58.20833,58.20833 0 0 0 -0.32867,-0.0326 58.20833,58.20833 0 0 0 -0.32867,-0.0305 58.20833,58.20833 0 0 0 -0.32866,-0.0294 58.20833,58.20833 0 0 0 -0.32864,-0.0269 58.20833,58.20833 0 0 0 -0.32919,-0.0253 58.20833,58.20833 0 0 0 -0.32917,-0.0233 58.20833,58.20833 0 0 0 -0.3292,-0.0217 58.20833,58.20833 0 0 0 -0.32969,-0.0196 58.20833,58.20833 0 0 0 -0.32917,-0.0176 58.20833,58.20833 0 0 0 -0.3297,-0.016 58.20833,58.20833 0 0 0 -0.3297,-0.0139 58.20833,58.20833 0 0 0 -0.32969,-0.0119 58.20833,58.20833 0 0 0 -0.3297,-0.0104 58.20833,58.20833 0 0 0 -0.3302,-0.009 58.20833,58.20833 0 0 0 -0.3297,-0.006 58.20833,58.20833 0 0 0 -0.33023,-0.005 58.20833,58.20833 0 0 0 -0.32969,-0.003 58.20833,58.20833 0 0 0 -0.3302,-0.001 58.20833,58.20833 0 0 0 -0.0228,0 58.20833,58.20833 0 0 0 -0.33022,0.001 58.20833,58.20833 0 0 0 -0.3302,0.003 58.20833,58.20833 0 0 0 -0.3297,0.005 58.20833,58.20833 0 0 0 -0.33023,0.007 58.20833,58.20833 0 0 0 -0.32969,0.009 58.20833,58.20833 0 0 0 -0.3297,0.0103 58.20833,58.20833 0 0 0 -0.3297,0.0124 58.20833,58.20833 0 0 0 -0.32967,0.0139 58.20833,58.20833 0 0 0 -0.3297,0.016 58.20833,58.20833 0 0 0 -0.32969,0.0181 58.20833,58.20833 0 0 0 -0.3292,0.0196 58.20833,58.20833 0 0 0 -0.3297,0.0217 58.20833,58.20833 0 0 0 -0.32866,0.0233 58.20833,58.20833 0 0 0 -0.32917,0.0258 58.20833,58.20833 0 0 0 -0.32917,0.0269 58.20833,58.20833 0 0 0 -0.32866,0.0295 58.20833,58.20833 0 0 0 -0.32817,0.0305 58.20833,58.20833 0 0 0 -0.32863,0.0331 58.20833,58.20833 0 0 0 -0.32817,0.0346 58.20833,58.20833 0 0 0 -0.32813,0.0367 58.20833,58.20833 0 0 0 -0.32764,0.0382 58.20833,58.20833 0 0 0 -0.32763,0.0403 58.20833,58.20833 0 0 0 -0.32711,0.0419 58.20833,58.20833 0 0 0 -0.3271,0.0444 58.20833,58.20833 0 0 0 -0.3266,0.0455 58.20833,58.20833 0 0 0 -0.3266,0.0476 58.20833,58.20833 0 0 0 -0.3266,0.0496 58.20833,58.20833 0 0 0 -0.32555,0.0517 58.20833,58.20833 0 0 0 -0.3261,0.0532 58.20833,58.20833 0 0 0 -0.32504,0.0548 58.20833,58.20833 0 0 0 -0.32504,0.0568 58.20833,58.20833 0 0 0 -0.32504,0.0589 58.20833,58.20833 0 0 0 -0.32401,0.0605 58.20833,58.20833 0 0 0 -0.32454,0.0625 58.20833,58.20833 0 0 0 -0.32347,0.0641 58.20833,58.20833 0 0 0 -0.32351,0.0662 58.20833,58.20833 0 0 0 -0.32245,0.0682 58.20833,58.20833 0 0 0 -0.32298,0.0698 58.20833,58.20833 0 0 0 -0.32194,0.0713 58.20833,58.20833 0 0 0 -0.32195,0.0734 58.20833,58.20833 0 0 0 -0.32091,0.0754 58.20833,58.20833 0 0 0 -0.32091,0.077 58.20833,58.20833 0 0 0 -0.32039,0.0791 58.20833,58.20833 0 0 0 -0.32041,0.0806 58.20833,58.20833 0 0 0 -0.31935,0.0822 58.20833,58.20833 0 0 0 -0.31885,0.0847 58.20833,58.20833 0 0 0 -0.31885,0.0858 58.20833,58.20833 0 0 0 -0.31779,0.0879 58.20833,58.20833 0 0 0 -0.31782,0.0899 58.20833,58.20833 0 0 0 -0.31678,0.0915 58.20833,58.20833 0 0 0 -0.31676,0.0935 58.20833,58.20833 0 0 0 -0.31575,0.0951 58.20833,58.20833 0 0 0 -0.31576,0.0966 58.20833,58.20833 0 0 0 -0.31469,0.0987 58.20833,58.20833 0 0 0 -0.3142,0.10077 58.20833,58.20833 0 0 0 -0.31419,0.10232 58.20833,58.20833 0 0 0 -0.31316,0.10387 58.20833,58.20833 0 0 0 -0.31266,0.10593 58.20833,58.20833 0 0 0 -0.3116,0.10749 58.20833,58.20833 0 0 0 -0.3116,0.10904 58.20833,58.20833 0 0 0 -0.31056,0.1111 58.20833,58.20833 0 0 0 -0.31007,0.11317 58.20833,58.20833 0 0 0 -0.30954,0.11473 58.20833,58.20833 0 0 0 -0.30903,0.11627 58.20833,58.20833 0 0 0 -0.308,0.11782 58.20833,58.20833 0 0 0 -0.30747,0.11989 58.20833,58.20833 0 0 0 -0.30644,0.12196 58.20833,58.20833 0 0 0 -0.30644,0.12298 58.20833,58.20833 0 0 0 -0.30541,0.12506 58.20833,58.20833 0 0 0 -0.30438,0.12713 58.20833,58.20833 0 0 0 -0.30385,0.12815 58.20833,58.20833 0 0 0 -0.30334,0.13074 58.20833,58.20833 0 0 0 -0.30231,0.13178 58.20833,58.20833 0 0 0 -0.30179,0.13384 58.20833,58.20833 0 0 0 -0.30128,0.1354 58.20833,58.20833 0 0 0 -0.30022,0.13694 58.20833,58.20833 0 0 0 -0.29922,0.13849 58.20833,58.20833 0 0 0 -0.29869,0.14056 58.20833,58.20833 0 0 0 -0.29765,0.14211 58.20833,58.20833 0 0 0 -0.29716,0.14418 58.20833,58.20833 0 0 0 -0.29609,0.14573 58.20833,58.20833 0 0 0 -0.29507,0.14675 58.20833,58.20833 0 0 0 -0.29456,0.14935 58.20833,58.20833 0 0 0 -0.29403,0.15038 58.20833,58.20833 0 0 0 -0.29249,0.15193 58.20833,58.20833 0 0 0 -0.29197,0.15399 58.20833,58.20833 0 0 0 -0.29094,0.15555 58.20833,58.20833 0 0 0 -0.29043,0.1571 58.20833,58.20833 0 0 0 -0.28938,0.15916 58.20833,58.20833 0 0 0 -0.28837,0.1602 58.20833,58.20833 0 0 0 -0.28731,0.16226 58.20833,58.20833 0 0 0 -0.2863,0.16381 58.20833,58.20833 0 0 0 -0.28575,0.16537 58.20833,58.20833 0 0 0 -0.28475,0.16691 58.20833,58.20833 0 0 0 -0.28371,0.16847 58.20833,58.20833 0 0 0 -0.28265,0.17002 58.20833,58.20833 0 0 0 -0.28165,0.17208 58.20833,58.20833 0 0 0 -0.28059,0.17311 58.20833,58.20833 0 0 0 -0.28009,0.17519 58.20833,58.20833 0 0 0 -0.27855,0.17673 58.20833,58.20833 0 0 0 -0.278,0.17777 58.20833,58.20833 0 0 0 -0.27699,0.17983 58.20833,58.20833 0 0 0 -0.27544,0.18138 58.20833,58.20833 0 0 0 -0.27492,0.18242 58.20833,58.20833 0 0 0 -0.27337,0.18449 58.20833,58.20833 0 0 0 -0.27284,0.18603 58.20833,58.20833 0 0 0 -0.27183,0.18759 58.20833,58.20833 0 0 0 -0.27027,0.18913 58.20833,58.20833 0 0 0 -0.26922,0.19017 58.20833,58.20833 0 0 0 -0.26874,0.19224 58.20833,58.20833 0 0 0 -0.26715,0.19379 58.20833,58.20833 0 0 0 -0.26614,0.19482 58.20833,58.20833 0 0 0 -0.26511,0.19688 58.20833,58.20833 0 0 0 -0.26406,0.19792 58.20833,58.20833 0 0 0 -0.26252,0.19948 58.20833,58.20833 0 0 0 -0.26199,0.20102 58.20833,58.20833 0 0 0 -0.26045,0.20257 58.20833,58.20833 0 0 0 -0.25943,0.20412 58.20833,58.20833 0 0 0 -0.25786,0.20567 58.20833,58.20833 0 0 0 -0.25733,0.20671 58.20833,58.20833 0 0 0 -0.2558,0.20825 58.20833,58.20833 0 0 0 -0.25477,0.21033 58.20833,58.20833 0 0 0 -0.25323,0.21084 58.20833,58.20833 0 0 0 -0.25218,0.2129 58.20833,58.20833 0 0 0 -0.25114,0.21446 58.20833,58.20833 0 0 0 -0.25011,0.21549 58.20833,58.20833 0 0 0 -0.24858,0.21704 58.20833,58.20833 0 0 0 -0.24751,0.21808 58.20833,58.20833 0 0 0 -0.24599,0.22014 58.20833,58.20833 0 0 0 -0.24495,0.22117 58.20833,58.20833 0 0 0 -0.24339,0.22221 58.20833,58.20833 0 0 0 -0.24236,0.22428 58.20833,58.20833 0 0 0 -0.24132,0.22531 58.20833,58.20833 0 0 0 -0.23979,0.22634 58.20833,58.20833 0 0 0 -0.23874,0.22841 58.20833,58.20833 0 0 0 -0.2372,0.22944 58.20833,58.20833 0 0 0 -0.23564,0.23048 58.20833,58.20833 0 0 0 -0.2346,0.23203 58.20833,58.20833 0 0 0 -0.2336,0.23358 58.20833,58.20833 0 0 0 -0.23201,0.23461 58.20833,58.20833 0 0 0 -0.23048,0.23616 58.20833,58.20833 0 0 0 -0.22945,0.23719 58.20833,58.20833 0 0 0 -0.22789,0.23875 58.20833,58.20833 0 0 0 -0.22635,0.23978 58.20833,58.20833 0 0 0 -0.22532,0.24133 58.20833,58.20833 0 0 0 -0.22375,0.24236 58.20833,58.20833 0 0 0 -0.2227,0.24391 58.20833,58.20833 0 0 0 -0.2212,0.24495 58.20833,58.20833 0 0 0 -0.21963,0.24598 58.20833,58.20833 0 0 0 -0.21807,0.24753 58.20833,58.20833 0 0 0 -0.21703,0.24856 58.20833,58.20833 0 0 0 -0.21548,0.25011 58.20833,58.20833 0 0 0 -0.21394,0.25115 58.20833,58.20833 0 0 0 -0.21291,0.25218 58.20833,58.20833 0 0 0 -0.21085,0.25374 58.20833,58.20833 0 0 0 -0.20981,0.25476 58.20833,58.20833 0 0 0 -0.20826,0.2558 58.20833,58.20833 0 0 0 -0.0372,0.0465 58.20833,58.20833 0 0 0 45.28667,21.63895 58.20833,58.20833 0 0 0 45.28664,-21.63899 z" />
        <circle
           style="fill:#3461ff;fill-opacity:1;fill-rule:evenodd;stroke:none;stroke-width:1.16941;stroke-linecap:round;stroke-linejoin:round;paint-order:markers fill stroke"
           id="circle957"
           cx="387.19955"
           cy="69.96891"
           r="21.922617" />
      </g>
    </g>
  </g>
</svg>
